<?xml version="1.0" encoding="UTF-8" standalone="no"?>
<!DOCTYPE svg PUBLIC "-//W3C//DTD SVG 1.1//EN" "http://www.w3.org/Graphics/SVG/1.1/DTD/svg11.dtd">
<svg width="100%" height="100%" viewBox="0 0 24 18" version="1.1" xmlns="http://www.w3.org/2000/svg" xmlns:xlink="http://www.w3.org/1999/xlink" xml:space="preserve" xmlns:serif="http://www.serif.com/" style="fill-rule:evenodd;clip-rule:evenodd;stroke-linejoin:round;stroke-miterlimit:2;">
    <g transform="matrix(0.184736,0,0,0.184736,9.62042,7.34994)">
        <g transform="matrix(1,0,0,1,-52,-42.8403)">
            <g transform="matrix(1,0,0,1,33.1342,45.7973)">
                <g transform="matrix(64,0,0,64,24.7643,48.907)">
                    <path d="M0.863,-0.701L0.863,-0.577L0.823,-0.577L0.709,-0L0.521,-0L0.435,-0.373L0.345,-0L0.156,-0L0.05,-0.577L0.01,-0.577L0.01,-0.701L0.296,-0.701L0.296,-0.577L0.245,-0.577L0.298,-0.219L0.411,-0.701L0.538,-0.701L0.641,-0.219L0.704,-0.577L0.65,-0.577L0.65,-0.701L0.863,-0.701Z" style="fill:rgb(0,166,81);fill-rule:nonzero;"/>
                </g>
            </g>
            <g transform="matrix(1,0,0,1,-7.80603,45.7973)">
                <g transform="matrix(64,0,0,64,24.7643,48.907)">
                    <path d="M0.863,-0.701L0.863,-0.577L0.823,-0.577L0.709,-0L0.521,-0L0.435,-0.373L0.345,-0L0.156,-0L0.05,-0.577L0.01,-0.577L0.01,-0.701L0.296,-0.701L0.296,-0.577L0.245,-0.577L0.298,-0.219L0.411,-0.701L0.538,-0.701L0.641,-0.219L0.704,-0.577L0.65,-0.577L0.65,-0.701L0.863,-0.701Z" style="fill:rgb(255,177,20);fill-rule:nonzero;"/>
                </g>
            </g>
        </g>
        <g transform="matrix(1,0,0,1,-52,-38.7611)">
            <g transform="matrix(1,0,0,1,-25.3598,0.718026)">
                <g transform="matrix(64,0,0,64,24.7643,48.907)">
                    <path d="M0.863,-0.701L0.863,-0.577L0.823,-0.577L0.709,-0L0.521,-0L0.435,-0.373L0.345,-0L0.156,-0L0.05,-0.577L0.01,-0.577L0.01,-0.701L0.296,-0.701L0.296,-0.577L0.245,-0.577L0.298,-0.219L0.411,-0.701L0.538,-0.701L0.641,-0.219L0.704,-0.577L0.65,-0.577L0.65,-0.701L0.863,-0.701Z" style="fill:rgb(0,120,208);fill-rule:nonzero;"/>
                </g>
            </g>
            <g transform="matrix(1,0,0,1,12.0026,0.718026)">
                <g transform="matrix(64,0,0,64,24.7643,48.907)">
                    <path d="M0.863,-0.701L0.863,-0.577L0.823,-0.577L0.709,-0L0.521,-0L0.435,-0.373L0.345,-0L0.156,-0L0.05,-0.577L0.01,-0.577L0.01,-0.701L0.296,-0.701L0.296,-0.577L0.245,-0.577L0.298,-0.219L0.411,-0.701L0.538,-0.701L0.641,-0.219L0.704,-0.577L0.65,-0.577L0.65,-0.701L0.863,-0.701Z" style="fill-rule:nonzero;"/>
                </g>
            </g>
            <g transform="matrix(1,0,0,1,49.7211,0.718026)">
                <g transform="matrix(64,0,0,64,24.7643,48.907)">
                    <path d="M0.863,-0.701L0.863,-0.577L0.823,-0.577L0.709,-0L0.521,-0L0.435,-0.373L0.345,-0L0.156,-0L0.05,-0.577L0.01,-0.577L0.01,-0.701L0.296,-0.701L0.296,-0.577L0.245,-0.577L0.298,-0.219L0.411,-0.701L0.538,-0.701L0.641,-0.219L0.704,-0.577L0.65,-0.577L0.65,-0.701L0.863,-0.701Z" style="fill:rgb(240,40,45);fill-rule:nonzero;"/>
                </g>
            </g>
        </g>
    </g>
</svg>
